<?xml version="1.0" encoding="utf-8"?>
<!-- Generator: Adobe Illustrator 21.0.0, SVG Export Plug-In . SVG Version: 6.00 Build 0)  -->
<svg version="1.1" id="Слой_1" xmlns="http://www.w3.org/2000/svg" xmlns:xlink="http://www.w3.org/1999/xlink" x="0px" y="0px"
	 viewBox="0 0 160.1 104.7" style="enable-background:new 0 0 160.1 104.7;" xml:space="preserve">
<style type="text/css">
	.st0{fill:#CE3A32;}
	.st1{fill:#727A73;}
</style>
<path class="st0" d="M3.8,75.7c-1.5,0-2.6,0-3.6,0c-0.6-1.9,0.5-41.8,1.1-44.2c1.5,0,3,0,4.8,0c2,6,4.1,12.1,6.2,18.2
	c1.3-0.5,1.3-1.5,1.5-2.3c1.5-4.4,2.9-8.8,4.4-13.2c0.3-0.9,0.6-1.8,1-2.8c1.6,0,3.1,0,4.5,0c0.7,1.8,2.1,40.8,1.5,44.1
	c-1.1,0-2.3,0-3.5,0c-0.1-0.6-0.2-1.1-0.3-1.6c-0.2-9.8-0.5-19.7-0.7-29.5c0-1.7-0.2-3.4-0.6-5.2c-1.5,2-1.8,4.3-2.7,6.5
	c-0.9,2.3-1.6,4.7-2.4,7c-0.8,2.3-1.5,4.5-2.5,7.4C11.1,56.5,10.2,53,9,49.6c-1.2-3.4-2.3-6.9-3.8-10.3c-1,4-0.7,8-0.8,12
	c-0.1,4-0.2,8-0.3,12C3.9,67.4,3.9,71.5,3.8,75.7z"/>
<path class="st0" d="M148.5,74.3c-1.4,0-2.4,0-3.7,0c-0.1-1-0.1-1.7-0.1-2.5c0-4.2,0-8.3,0-12.5c0-1.6-0.3-3-1-4.4
	c-3.2-7.2-6.3-14.3-9.4-21.5c-0.3-0.8-0.6-1.6-1-2.7c1.2-0.5,2.2-0.9,3.4-1.4c0.4,0.7,0.8,1.3,1,1.9c2.5,6,5.1,11.9,7.6,17.9
	c0.3,0.8,0.7,1.5,1.4,2.9c0.6-1.2,1.1-2,1.4-2.7c2.4-5.6,4.7-11.2,7.1-16.8c0.4-1,0.9-2,1.5-3.2c1.2,0.5,2.2,0.9,3.5,1.4
	c-0.3,0.8-0.6,1.6-0.9,2.3c-3.2,7.4-6.5,14.8-9.8,22.1c-0.6,1.3-0.9,2.7-0.9,4.2c0.1,4.2,0,8.3,0,12.5
	C148.6,72.5,148.5,73.3,148.5,74.3z"/>
<path class="st1" d="M121.8,60.5h-2.6c0.2-0.6,0.5-1.2,0.7-1.8c0.5-1.4,1.1-2.7,1.5-4c1.8-5,2.1-10.4,0.9-16.4
	c-0.3-1.3-0.7-2.6-2.5-2.4c-0.5-5.4-2.2-9.6-5.2-13c-1.4-1.6-2.3-3.4-3-5.1c-0.8-1.9-1.9-3.6-2.9-5.3l-0.1-0.1
	c-0.3-0.5-1.2-1.3-1.8-1.2c-1.3,0.1-2-0.6-2.7-1.4l-0.2-0.2c-2.6-2.9-5.8-4.9-9.8-6.3c-1-0.3-2.1-0.6-3.1-0.8
	c-1.8-0.4-3.6-0.8-5.3-1.8c-0.3-0.2-0.7-0.3-1-0.2c-1.6,0.5-2.8-0.3-3.5-0.7l0,0l0,0c-0.4,0-0.8,0.1-1.1,0.1c-0.8,0.1-1.4,0.1-2,0.2
	c-0.4,0-0.8,0.1-1.1,0.3c-0.2,0.1-0.4,0.1-0.6,0.2c-1.6,0.5-3.2,1.1-3.9,3c0,0.1-0.2,0.1-0.3,0.2C71.9,4,71.9,4,71.8,4
	c-0.3,0.2-0.5,0.3-0.8,0.5c-0.6,0.3-1.2,0.7-1.8,1.1c-0.6,0.4-1.1,0.8-1.7,1.3c-0.2,0.2-0.5,0.4-0.7,0.5l-1.9-1.6l-0.1,0
	c-2.2,1.3-3.7,3.1-5.1,4.6c-0.4,0.5-0.9,0.9-1.5,1.3L58,12.1c-0.3,0.2-0.6,0.4-0.9,0.6c-0.6,0.4-1.1,0.7-1.5,1.2
	c-0.9,1.2-1.8,2.6-2.8,4.5c-0.9,1.7-1.7,3.4-2.6,5.1c-0.3,0.7-0.7,1.4-1.1,2.2c-1.3-0.6-2,0.2-2.6,1.1c-2.4,3.3-3.9,7.2-4.7,12.7
	c-0.9,6-0.6,12,0.9,17.9c1.4,5.7,3.1,11.1,7.7,14.9c0.4,0.3,0.8,1,0.9,1.5c0.3,3.7,2.9,5.9,4.8,7.2c4.7,3.2,10,5.1,15.9,5.9l0.3,0
	c2.4,0.3,2.4,0.3,2.7,2.7c0.3,3,0.5,6,0.7,9l0.1,1.7c0.1,0.9,0.1,1.9,1.1,2.6c1.7,1.2,4.2,1.8,6.6,1.8c2.2,0,4.4-0.5,5.9-1.5
	c0.9-0.6,1.8-1.4,1.9-3c0.1-3.8,0.3-7.4,0.5-11.7c0.1-2.5,0.4-2.7,2.8-3c5.3-0.6,9.6-2.3,13.3-5.1c5.5-4.2,9.4-9.8,12.8-15.1
	c1-1.6,1.4-3.1,1.2-4.6L121.8,60.5z M101.8,13c0,0-0.2,0.1-0.4,0.1c0,0,0,0,0,0c-0.3,0-0.6-0.1-0.6-0.2c-2.1-2.1-4.1-4.3-6.1-6.4
	L94.1,6c0,0,0-0.1,0-0.2c0,0,0,0,0,0c2.9,0.4,7.4,3.7,8.1,5.9C102.3,12.1,102,12.7,101.8,13z M116.2,30.1c1.3,2,1.9,4.2,1.8,6.7
	C117,35.5,116.2,32.6,116.2,30.1z M112.2,73.4c-2.8,2.5-5.7,4.8-8.5,6.9c-1.3,1-2.7,1.4-4.1,1.1c0.1-0.1,0.2-0.1,0.2-0.2
	c0.3-0.2,0.7-0.5,1-0.7c2.6-1.5,4.8-3.7,6.9-6.6c1.2-1.7,2.5-3.2,3.6-4.4c0.9-1,1.9-2.1,2.9-3c0.5-0.5,1.1-1.1,1.6-1.6
	c1-1,1-1,2.9-0.5c-0.2,0.4-0.4,0.8-0.6,1.1c-0.5,0.9-0.9,1.8-1.5,2.6v0C115.4,69.8,113.9,71.8,112.2,73.4z M87.6,92.4
	c-0.2-0.7-0.4-1.3-0.9-1.9l-0.2-0.3l0,0.3c0,1.3,0.1,2.6,0.2,3.9c0.2,2.1,0.4,4.1,0,6.3c-1-0.7-1.1-1.6-1.3-2.5
	c-0.1-0.4-0.1-0.7-0.2-1.1c-0.1-0.4-0.3-0.8-0.4-1.2c-0.3-0.9-0.6-1.8-1-2.7l-0.2-0.3l-1.2,7.5c-0.4,0.1-0.6,0.1-0.8,0
	c-0.3-0.1-0.3-0.5-0.4-0.8l0-0.1c-0.5-2-1.1-4.1-1.6-6.1l-0.3-1.1C79.1,92,79,91.7,79,91.4c0-0.1-0.1-0.3-0.1-0.4l0-0.1l-0.5,0.1
	L77.6,98l-0.1,0c-0.1-0.2-0.1-0.3-0.2-0.5c-0.2-0.4-0.3-0.8-0.3-1.2c0-0.5,0-0.9,0-1.4c0-2.2,0-4.5,0.3-6.7c0.2-1.2,0.4-1.8,0.8-2.1
	c0.5-0.4,1.4-0.3,2.6-0.1l0.3,0c0.9,0.1,1.8,0.3,2.6,0c1.6-0.6,3.2-0.3,4.9,0c0.4,0.1,0.9,0.2,1.3,0.2c0,0.2,0,0.4,0.1,0.5
	c0.1,0.4,0.1,0.9,0,1c-1.4,1.2-1.2,2.6-1,4c0,0.3,0.1,0.6,0.1,0.9c0,0.4,0,0.9,0,1.4c0,0.2,0,0.5,0,0.7
	C88.1,94.1,87.9,93.3,87.6,92.4z M56.9,20.6c0,0.3,0.1,0.7,0.1,1c0.1,1,0.2,2.1,0.4,3.2l0.1,0.5l0.1-0.5c0.3-1.1,0.4-2.2,0.5-3.3
	c0.3-2.5,0.5-4.9,2.6-6.8c3.6,3.7,5,11.5,2.6,14.5l-2.2-0.8l-1.9,3.7l-2.8-2.7l-2.9,4.8c-1.7-2.4-2.4-6.2-1.5-8.4
	c1-2.6,2.1-5.2,3.1-7.7l0,0c0.2-0.4,0.4-0.8,0.7-1.2c0.1-0.2,0.2-0.4,0.4-0.6c0.6,1,0.5,2,0.5,3C56.8,19.7,56.8,20.2,56.9,20.6z
	 M70.2,11c0.1,0.5,0.2,0.9,0.3,1.6l0.3,1.5l2.8-6.4c0.2,0.2,0.5,0.4,0.7,0.5c0.5,0.4,0.9,0.7,1.1,1.1c1.6,2.5,3.1,5,4.6,7.6
	c0.2,0.4,0.3,1.2,0.1,1.7c-0.5,1.1-1,2.2-1.6,3.3c-0.2,0.4-0.4,0.8-0.7,1.3c-0.8-0.2-1.5-0.7-2.2-1.1c-1-0.6-1.9-1.2-3.1-1.2
	c0,0-0.1,0-0.1,0l-0.1,0l-0.6,2.4c-0.7-0.1-1-0.6-1.4-1.1c-0.3-0.5-0.6-1-1.3-1.2l-0.1,0l-1.9,1.7c-2.9-3.6-1.8-9,2.7-13.4l0.1,0.6
	C70,10.2,70.1,10.6,70.2,11z M107.1,15.5c3.4,2.7,6.4,10.7,5.5,14.8l-1.8-0.8l-2.3,4.1c-0.1-0.1-0.2-0.2-0.4-0.3
	c-0.3-0.2-0.5-0.5-0.7-0.7c-2.2-3.1-4.2-5.9-5.9-8.4c-0.4-0.6-0.7-1.1-0.7-1.6c0.2-2.9,1.3-5.5,3.4-8.1l2.4,5.5l0.1-1.3
	c0.1-0.6,0.1-1,0.1-1.5c0-0.4,0.1-0.8,0.1-1.3L107.1,15.5z M68.8,78.3c-1.9-0.4-1.9-0.4-2.1-2.2c-0.3-3.6-1.3-7-2.9-10.1l-0.2-0.3
	c-0.3-0.6-0.6-1.2-1.1-1.8c-1.3-1.4-1.6-3.1-1-5.3c0.5-1.9,1.2-3.7,1.9-5.4c0.1-0.3,0.4-0.6,0.7-1c0.1-0.2,0.3-0.3,0.4-0.5
	c1.1,1.5,1.3,3.1,1.6,4.9c0.2,1.4,0.4,2.9,1.1,4.2l0.2,0.4l0.7-9.6c3.2,0,7.7,3,10.2,6.7c1.4,2.2,1.6,2.8,0.9,4.3l-0.1-0.1
	c-0.2-0.2-0.4-0.5-0.6-0.7c-0.2-0.2-0.3-0.4-0.6-0.6L77.7,61L77.6,61c-2.9,2.1-5.2,4.6-6.9,7.7C69.1,71.6,68.4,74.8,68.8,78.3z
	 M85.1,37.7c0.2,1.2,0.3,2.5,0.9,3.7l0.1,0.3l0.1-0.3c0.8-1.8,0.9-3.6,1-5.3c0.1-1,0.2-2.1,0.4-3.1c0.1,0.1,0.3,0.1,0.4,0.2
	c0.3,0.2,0.6,0.3,0.8,0.5c3.6,4.3,6.5,9.3,9,15.4c0.4,1.1,0.2,1.8-0.7,2.3c-3.9,2-7,5.1-10,8l-0.7,0.7c-0.4,0.4-0.8,0.7-1.3,1.1
	c0,0-0.1,0-0.3,0.1c-0.1,0-0.2,0-0.4,0.1c-2.8-4.9-6.5-8.7-10.9-11.2c0.7-4.3,7.1-14.7,10.3-16.6C84.7,34.7,84.9,36.1,85.1,37.7z
	 M106.9,40.7c-0.9,1.4-1.7,2.8-2.5,4.2c-0.4,0.8-0.9,1.6-1.4,2.4c-0.3,0.4-0.5,0.8-0.9,1.3c-0.2,0.2-0.3,0.5-0.5,0.7
	c-0.2-0.2-0.3-0.4-0.5-0.6c-0.3-0.4-0.5-0.7-0.7-0.9c-0.9-1.4-1.7-2.8-2.6-4.2c-1.9-3-3.8-6.2-5.7-9.2c-1.1-1.7-1.2-3.2-0.3-5
	c0.7-1.4,1.5-2.8,3.1-4l3.1,5.8l1-5.6c0.2,0.1,0.4,0.2,0.5,0.3c0.3,0.2,0.6,0.4,0.8,0.6c3.2,3.6,5.5,7.1,7,10.7
	C107.7,38.5,107.6,39.5,106.9,40.7z M88,19.8l0.1-0.2c0.3-0.9,0.3-1.8,0.3-2.7c0-1.2,0-2.4,0.7-3.4c2.7,0.8,6.4,5.6,7,8.9
	c-1.7-0.7-2.6,0.3-3.4,1.5c-0.9,1.4-1.8,2.9-2.7,4.4l-1.1,1.9l-2.5-2l-0.9,1.3l-3-0.8c-2.6-4.7-1.9-9.5,2-13.5L88,19.8z M66.2,27.6
	c0.7-1.3,1.3-2.6,2.7-3.8c1,1.5,1.7,3.2,2.4,4.8c0.6,1.4,1.2,2.8,2,4.2l0.3,0.5l-0.1-0.6c-0.1-0.5-0.1-1-0.2-1.6
	c-0.2-1.2-0.3-2.4-0.6-3.6c-0.3-1.4-0.1-2.6,0.7-3.8c3.7,1.9,6,4.9,7,8.9c0.1,0.3-0.1,0.9-0.3,1.2c-2,2.6-4.1,5.1-6.1,7.6L73.6,42
	c0,0-0.1,0.1-0.2,0.1c-0.1,0-0.1,0-0.2,0.1c-0.1,0-0.1-0.1-0.2-0.1c-0.2-0.1-0.4-0.3-0.5-0.5c-0.9-1.3-1.8-2.7-2.8-4
	c-1.2-1.8-2.5-3.6-3.8-5.5c-0.8-1.1-0.9-2.2-0.2-3.4C65.9,28.3,66.1,28,66.2,27.6z M110.6,66c-0.2-0.6,0.1-1.1,0.4-1.5
	c0.1-0.1,0.2-0.3,0.3-0.4c0.5-0.7,0.9-1.5,1.4-2.2c0.7-1.1,1.4-2.1,2-3.2c2.2-3.8,3.5-7.5,4-11.5c0.3-2.5,0.4-2.6,2.2-4.7l0.2-0.2
	c1.5,2.6-0.2,9.1-2.5,14C116.1,61.8,113,65.6,110.6,66z M114.6,54.2c-0.5,1.6-1.4,3.1-2.1,4.5c-0.2,0.4-0.6,0.8-1,1.2
	c-0.2,0.2-0.3,0.3-0.5,0.5c-0.2-0.1-0.3-0.3-0.5-0.4c-0.3-0.2-0.5-0.4-0.7-0.6c-1.4-2.4-3-5-4.8-8.2c-0.4-0.8-0.5-1.5-0.1-2.4
	c1.4-3.1,2.8-6.3,4.2-9.4c0.8-1.7,1.5-3.4,2.3-5.1c0.1-0.1,0.2-0.2,0.3-0.4c0.1-0.1,0.1-0.1,0.2-0.2l2,1l0.1,0l1.2-0.7
	c0,0.1,0.1,0.1,0.1,0.1c0.1,0.1,0.2,0.2,0.2,0.3c0,0.2,0.1,0.3,0.1,0.5c0.2,0.7,0.3,1.4,0.4,2.1l0,0.5
	C116.3,43.1,116.5,48.8,114.6,54.2z M99.3,17.6c-0.3,0.4-0.5,0.8-0.7,1.3c-0.1,0.2-0.2,0.4-0.3,0.7c-0.4-0.5-0.9-1-1.3-1.5
	c-1-1.2-1.9-2.3-3-3.3c-1-1.1-2.1-2-3.3-3c-0.5-0.4-1-0.9-1.5-1.4l-0.1-0.1l-2.4,1.9l-1.8-1.6L83,12.3c-0.3-1.6,0.4-3.6,2.2-5.9
	l2.6,0.8l0.9-2.3C88.8,5,89,5,89.1,5.1c0.4,0.1,0.7,0.2,1,0.4c3.4,2,6.2,4.4,8.6,7.1C100.2,14.5,100.4,16,99.3,17.6z M57.2,33.5
	c0,0,0.1,0,0.2,0c0.7,0.8,1,1.9,1.3,3c0.3,1,0.5,2,1.1,2.9l0.2,0.3l1.6-8c0.3,0.2,0.6,0.4,0.8,0.5c0.5,0.3,0.9,0.6,1.3,0.9
	c2.8,2.6,5.2,5.9,7.6,10.7c0.7,1.3,0.1,2.4-0.5,3.6c-0.1,0.3-0.3,0.5-0.4,0.8l-2.7-1.4l-1.3,2.1L64,47.4L64,47.4
	c-2.6,2-3.3,4.9-4.1,7.9c-0.2,0.7-0.4,1.5-0.6,2.3c-0.2-0.1-0.3-0.2-0.5-0.3c-0.3-0.2-0.6-0.3-0.8-0.5c-2.3-2.1-4.3-3.4-6.4-4.2
	c-0.8-0.3-1.1-0.8-1-1.5c0.6-5.3,1.9-12,6.6-17.6C57.1,33.6,57.2,33.5,57.2,33.5z M46.7,58c0-0.1,0.1-0.3,0.1-0.5
	c1.3,0.8,1.6,2,1.9,3.2c0.3,1,0.5,2,1.4,2.7l0.2,0.2l0-0.2c0.2-1,0.1-2.1,0.1-3.1c-0.1-1.5-0.1-2.9,0.4-4.2c3,1.1,6.7,4.3,9.5,8.4
	c3.1,4.4,4.4,8.6,3.6,11.5c-0.1,0-0.3-0.1-0.4-0.1c-0.4-0.1-0.8-0.2-1.1-0.4c-1.3-0.8-2.5-1.6-3.8-2.4c-0.7-0.4-1.4-0.9-2.1-1.3
	l-0.2-0.1C56,71.2,55.6,71,55.2,71c-0.3,0-0.6,0.1-0.9,0.4h0c-0.2,0.2-1,0.1-1.3-0.2l-0.3-0.2c-1-0.8-2.1-1.6-2.8-2.6
	c-2-2.7-3.1-5.8-3.3-9.7C46.5,58.4,46.6,58.2,46.7,58z M58.3,77.7L57.6,75c0.2,0,0.4,0.1,0.5,0.1c0.4,0.1,0.7,0.2,1,0.3
	c0.7,0.4,1.4,0.8,2.1,1.3c0.8,0.5,1.6,1,2.4,1.4c2.2,1.2,4.5,2.5,7,3.7c1.9,0.9,2.6,1.4,3.4,2.7c-4.2,1.8-14-2.5-17.4-7.6L58.3,77.7
	z M71.3,73.4c0.6-2.2,1.7-4.4,2.6-6.5l0-0.1c0.4-0.8,1-1.9,2.4-2.4c1.1,1.4,1.5,3,1.9,4.6c0.4,1.7,0.9,3.4,2.1,4.9l0.2,0.3v-0.3
	c0-0.5,0-1.1,0-1.6c0-1.2,0-2.5,0-3.8c0.1-1.4,0.3-2.7,0.7-3.7c0.3-0.7,0.6-1.1,0.9-1.2c0.4-0.1,0.8,0,1.5,0.5
	c2.1,1.3,3.7,3,5.3,5.6c-0.9,0.6-1.7,1.2-2.6,1.7c-3.6,2.4-7.1,4.7-9.8,8c-0.5,0.6-0.9,1.2-1.3,1.8c-1-0.4-1.8-0.8-2.5-1.2
	c-0.3-0.2-0.6-0.5-0.9-0.8c-0.3-0.3-0.5-0.6-0.6-0.9C70.8,77,70.7,75.5,71.3,73.4z M87.2,82.7c-0.6,0-1.1,0.1-1.7,0.2
	c-0.3,0.1-0.6,0.1-0.9,0.2c-1.7,0.3-3.4,0.1-4.9,0c-0.5,0-0.9-0.3-1.3-0.6c-0.2-0.1-0.4-0.2-0.5-0.3c0.2-1.5,0.9-2.7,2.2-3.7
	l0.3-0.2c3.9-3,7.9-6,12.4-8.1c0.3-0.1,0.6-0.2,1.1-0.3c0.2,0,0.4-0.1,0.7-0.2c-0.1,0.3-0.1,0.6-0.2,0.9c-0.1,0.6-0.2,1.1-0.4,1.6
	c-0.4,0.9-0.8,1.8-1.2,2.6c-0.8,1.7-1.5,3.5-2.2,5.3l-0.2,0.5l0.4-0.4c1.3-1.2,2.2-2.7,3.1-4.4c1-1.8,2.1-3.8,4-5.2
	c0,0.2,0.1,0.4,0.1,0.6C98,71.5,98,71.8,98,72c-0.8,3.3-2.1,6.2-3.9,8.6c-0.6,0.8-1.6,1.6-2.7,2.2c-0.7,0.4-1.8,0.6-2.4,0.3
	C88.4,82.8,87.8,82.7,87.2,82.7z M98.9,74.8c1-2.2,1.9-4.2,1.3-6.8l0-0.1l-0.1,0c-0.3,0-0.5,0.1-0.8,0.1c-0.5,0.1-1.1,0.2-1.5,0.1
	c-0.4-0.1-0.9-0.4-1.4-0.7c-0.2-0.2-0.5-0.3-0.8-0.5l-0.1,0L92,68.3l-4.1-5.1c1.7-3.6,7.9-8.5,11.8-9.3l1.7,5.1l2-5.7
	c0.1,0,0.2,0,0.3,0c0,0,0.1,0,0.1,0c2.9,4.3,4.2,8.3,4.2,12.4c0,1.2-0.4,2.7-1.1,4.1c-1.5,3.1-3.9,5.7-7,7.6
	c-0.4,0.2-0.9,0.4-1.4,0.6c-0.3,0.1-0.6,0.2-0.9,0.3C97.9,77.1,98.4,75.9,98.9,74.8z M77.9,7.7c0-1.4,1.1-3,3.3-5.1l2.5,1.9
	l-3.6,7.5C78.6,10.3,77.9,9,77.9,7.7z M74.7,3.7h2.8l-1,3c-1.3-0.2-2.1-0.4-2.3-0.8C73.9,5.4,74.2,4.7,74.7,3.7z M64.4,14.1
	c-1.5-0.7-1.5-0.8-2.5-2.6l1.6-2l3.1,0.2C66.5,11.6,65.5,12.8,64.4,14.1z M47.6,51.3l-0.1,1.3l-2.6,1.1c-2.3-4.4-2-15.1,0.5-20.6
	c0.3-0.7,0.7-1.3,1.1-1.7l1,3.9l0.2-0.2c0.4-0.5,0.6-1.1,0.9-1.6c0.3-0.8,0.7-1.6,1.5-2c1,2.1,1.7,4,0.5,6.3
	C48.4,41.9,47.9,46.3,47.6,51.3z M84.8,3.6c1.2,0.3,1.2,0.3,1.6,1.3C85.4,4.9,85,4.3,84.8,3.6z"/>
</svg>
