<?xml version="1.0" encoding="utf-8"?>
<!-- Generator: Adobe Illustrator 21.0.0, SVG Export Plug-In . SVG Version: 6.00 Build 0)  -->
<svg version="1.1" id="Слой_1" xmlns="http://www.w3.org/2000/svg" xmlns:xlink="http://www.w3.org/1999/xlink" x="0px" y="0px"
	 viewBox="0 0 562.3 104.7" style="enable-background:new 0 0 562.3 104.7;" xml:space="preserve">
<style type="text/css">
	.st0{fill:#CE3A32;}
	.st1{fill:#727A73;}
</style>
<g>
	<path class="st0" d="M3.8,75.7c-1.5,0-2.6,0-3.6,0c-0.6-1.9,0.5-41.8,1.1-44.2c1.5,0,3,0,4.8,0c2,6,4.1,12.1,6.2,18.2
		c1.3-0.5,1.3-1.5,1.5-2.3c1.5-4.4,2.9-8.8,4.4-13.2c0.3-0.9,0.6-1.8,1-2.8c1.6,0,3.1,0,4.5,0c0.7,1.8,2.1,40.8,1.5,44.1
		c-1.1,0-2.3,0-3.5,0c-0.1-0.6-0.2-1.1-0.3-1.6c-0.2-9.8-0.5-19.7-0.7-29.5c0-1.7-0.2-3.4-0.6-5.2c-1.5,2-1.8,4.3-2.7,6.5
		c-0.9,2.3-1.6,4.7-2.4,7c-0.8,2.3-1.5,4.5-2.5,7.4C11.1,56.5,10.2,53,9,49.6c-1.2-3.4-2.3-6.9-3.8-10.3c-1,4-0.7,8-0.8,12
		c-0.1,4-0.2,8-0.3,12C3.9,67.4,3.9,71.5,3.8,75.7z"/>
	<path class="st1" d="M153.2,29.5c1.2,0,2.3,0,3.7,0c0,6.2,0,12.2,0,18.5c4.8,0.5,9.2,0.1,13.8,0.2c0.1-1.2,0.3-2.1,0.3-3.1
		c0-4.3,0-8.6,0-13c0-3,0.5-3.3,3.6-2.4c0,14.5,0,29,0,43.7c-1.1,0-2.1,0-3.4,0c-0.1-1-0.2-1.8-0.2-2.7c0-5.3,0-10.6,0-15.8
		c0-1-0.2-2-0.2-3.2c-4.6,0-9.1,0-13.7,0c-0.1,1-0.1,1.8-0.1,2.7c0,5.3,0,10.6,0,15.8c0,0.6,0,1.1,0,1.7c0,1.2-0.5,1.8-1.7,1.7
		c-0.6,0-1.2-0.1-2-0.2C153.2,58.9,153.2,44.4,153.2,29.5z"/>
	<path class="st1" d="M562.1,75.3c-1.2,0-2.2,0-3.4,0c-0.1-1.1-0.2-2-0.2-2.9c0-5.1,0-10.2,0-15.3c0-0.7,0-1.4-0.1-2.2
		c0-0.8-0.5-1.4-1.3-1.4c-4.1-0.1-8.3-0.2-12.7,0.1c0,7.3,0,14.4,0,21.6c-1.4,0-2.6,0-3.8,0c0-14.7,0-29.2,0-43.8
		c0.5-0.1,0.9-0.3,1.3-0.3c2.2-0.1,2.4,0.1,2.5,2.4c0,4.5,0,8.9,0,13.4c0,0.9,0,1.7,0,2.8c0.9,0.1,1.7,0.3,2.4,0.3c3,0,6.1,0,9.1,0
		c2.4,0,2.5-0.2,2.6-2.7c0-4.5,0-8.9,0-13.4c0-0.9,0.1-1.7,0.2-2.7c1.2,0,2.2,0,3.4,0c0.1,0.7,0.3,1.4,0.3,2c0,13.3,0,26.7,0,40
		C562.3,73.8,562.2,74.4,562.1,75.3z"/>
	<path class="st1" d="M368.3,74.8c-1.3,0.4-2.4,0.7-3.7,1.1c-0.3-1.2-0.6-2.1-0.8-3.1c-0.8-3.3-1.5-6.5-2.3-9.8
		c-0.4-1.8-0.6-1.9-2.5-1.9c-2.9,0-5.8,0-8.6,0c-1.9,0-2.1,0.2-2.6,2.2c-0.9,3.6-1.7,7.1-2.5,10.7c-0.1,0.6-0.4,1.2-0.7,1.9
		c-1.2-0.4-2.3-0.7-3.5-1c0.2-0.9,0.2-1.7,0.4-2.5c3.3-13.1,6.7-26.1,10.1-39.2c0.2-0.9,0.6-2.2,1.2-2.4c1.1-0.4,2.6-0.3,3.7,0
		c0.5,0.1,0.9,1.2,1.1,2c1.4,5.2,2.7,10.5,4.1,15.8c2.1,8,4.1,16.1,6.1,24.1C368,73.3,368.1,73.9,368.3,74.8z M360,57.4
		c-1.7-7.2-3.2-13.9-5.1-20.9c-1.3,2-5.3,18.7-5.2,21C353,57.8,356.2,57.9,360,57.4z"/>
	<path class="st1" d="M92.6,74.7c-1.3,0.4-2.4,0.7-3.7,1.1c-0.6-2.4-1.2-4.5-1.7-6.7c-0.5-2.1-1-4.2-1.5-6.3c-0.3-1.3-1-1.9-2.3-1.9
		c-3,0-5.9,0-8.9,0c-1.8,0-2,0.2-2.4,2c-0.8,3.4-1.6,6.9-2.4,10.3c-0.2,0.8-0.4,1.5-0.7,2.5c-1.3-0.4-2.4-0.7-3.7-1
		c0.2-0.9,0.3-1.7,0.5-2.5c3.3-13,6.6-26,10-39c0.1-0.5,0.3-0.9,0.4-1.4c0.2-0.9,0.7-1.4,1.7-1.4c0.2,0,0.5,0,0.7,0
		c2.9-0.1,2.9-0.1,3.6,2.7c1.4,5.5,2.8,11,4.2,16.5c1.9,7.4,3.8,14.9,5.7,22.3C92.2,72.9,92.4,73.7,92.6,74.7z M79.4,36.8
		c-0.2,0-0.5,0-0.7,0c-1.1,2.1-1.2,4.5-1.8,6.7c-0.6,2.3-1.1,4.6-1.6,7c-0.5,2.3-1.4,4.5-1.4,6.9c2.7,0.7,8.3,0.6,10.4-0.3
		C82.6,50.3,81,43.6,79.4,36.8z"/>
	<path class="st1" d="M197.8,29.2c3.7,14.5,7.4,29,11.2,43.8c-1.4,0.4-2.5,0.7-3.8,1c-0.6-2.5-1.2-4.7-1.7-6.9c-0.5-2-1-4-1.4-6.1
		c-0.3-1.2-0.9-1.8-2.1-1.8c-3,0-6.1-0.1-9.1,0c-1.8,0-2,0.2-2.4,2c-0.8,3.4-1.6,6.8-2.4,10.3c-0.2,0.8-0.4,1.5-0.7,2.4
		c-1.2-0.3-2.3-0.6-3.6-0.9c0.2-0.9,0.2-1.7,0.4-2.4c3.3-12.8,6.5-25.5,9.8-38.3c1-3.7,1-3.8,4.9-3.4
		C196.9,29,197.1,29.1,197.8,29.2z M200.5,55.7c-1.7-7.3-3.2-14-5.2-21.3c-0.5,0.9-0.8,1.3-0.9,1.7c-1.5,6.4-3.1,12.8-4.7,19.6
		C193.5,55.9,196.8,56,200.5,55.7z"/>
	<path class="st1" d="M383.1,31.6c1,0,2,0,3.2,0c0.1,0.9,0.2,1.8,0.2,2.6c0,4.4,0,8.8,0,13.2c0,0.8-0.4,1.9,0.7,2.3
		c1.2,0.5,1.6-0.7,2.1-1.5c3.2-5,6.4-9.9,9.7-14.9c0.5-0.8,1.1-1.6,1.8-2.6c1.1,0.6,2,1.2,3.1,1.9c-0.6,0.9-1,1.8-1.5,2.5
		c-3.1,4.8-6.2,9.5-9.4,14.2c-1,1.5-1.1,2.7,0,4.3c4.2,6.3,8.2,12.8,12.3,19.2c0.3,0.5,0.6,1.1,1,1.8c-1,0.6-1.9,1.2-3.1,2
		c-0.5-0.7-1-1.3-1.4-2c-3.9-6.3-7.8-12.6-11.8-18.9c-0.6-1-1-2.7-2.7-2.1c-1.4,0.5-0.7,2-0.8,3c-0.1,5.4,0,10.7,0,16.1
		c0,0.9,0,1.7,0,2.9c-1.2,0.1-2.2,0.1-3.2,0.2C382.6,73.8,382.5,34.4,383.1,31.6z"/>
	<path class="st1" d="M424.3,32.6c1.1,0,2.1,0,3.4,0c0.1,1.1,0.2,2.1,0.2,3.1c0,8.8,0,17.6,0,26.4c0,1.8,0.1,3.7,0.3,5.5
		c0.5,4.6,4.1,7,8.6,5.8c2.5-0.7,4-2.4,4.4-4.8c0.3-1.8,0.5-3.7,0.5-5.5c0-9.1,0-18.2,0-27.4c0-0.9,0-1.9,0-3.1c1.3,0,2.4,0,3.6,0
		c0,0.9,0.1,1.8,0.1,2.6c0,10.2,0,20.5,0,30.7c0,1.2-0.1,2.4-0.4,3.6c-0.9,4.1-3.5,6.6-7.5,7.5c-2.6,0.5-5.1,0.5-7.5-0.6
		c-4.2-1.8-5.8-5.3-5.9-9.6c-0.1-8.9,0-17.8,0-26.6c0-1.8,0-3.5,0-5.3C424.2,34.1,424.3,33.4,424.3,32.6z"/>
	<path class="st1" d="M475.2,64.7c1.2-0.2,2.2-0.4,3.5-0.6c0.3,1.3,0.6,2.6,1,3.8c1.2,3.9,4.6,5.7,8.4,4.5c1.6-0.5,2.8-1.5,3.7-2.9
		c1.9-3.3,1.5-8.7-1.3-11.4c-1.5-1.4-3.3-2.6-5-3.7c-1.8-1.2-3.7-2.3-5.5-3.4c-6-3.9-5.1-13.9-0.4-17.7c3.1-2.5,6.5-3,10.1-1.6
		c3.6,1.4,5.3,4.4,6,8.1c0,0.2-0.1,0.4-0.2,0.8c-1,0.2-1.9,0.4-3,0.6c-0.4-0.9-0.7-1.7-1.1-2.5c-1.3-2.7-3.5-4.2-6-4
		c-2.9,0.3-4.8,2.1-5.6,5.1c-0.8,3.5,0,6.3,3,8.4c1.3,0.9,2.7,1.7,4,2.6c1.3,0.9,2.7,1.7,4,2.6c6,4.2,7.6,11.6,4,18
		c-1.2,2.1-2.9,3.6-5.2,4.3c-2.3,0.7-4.7,0.7-7.1,0.2c-2.8-0.6-4.9-2.4-6.1-5C475.8,69.1,475.2,67,475.2,64.7z"/>
	<path class="st1" d="M116.5,62.3c1.5-0.1,2.5-0.1,3.8-0.2c0.3,1.2,0.5,2.2,0.8,3.2c0.9,3.5,3.2,5.3,6.5,5.3c3.2,0,5.7-2,6.6-5.3
		c1.2-4.6-0.3-8.6-4.4-11.4c-2.3-1.5-4.8-2.9-7.2-4.4c-2.7-1.7-4.7-4-5-7.3c-0.2-1.9-0.1-4,0.4-5.9c1.3-5.1,5.4-7.7,10.8-7.4
		c4.1,0.3,8.1,4,8.6,9.4c-1,0.2-2.1,0.4-3.3,0.6c-0.4-0.9-0.7-1.7-1.1-2.5c-1.4-2.9-3.6-4.3-6.5-3.9c-2.7,0.4-4.5,2.3-5.1,5.3
		c-0.7,3.4,0.1,6.2,3.1,8.2c1.4,0.9,2.8,1.8,4.2,2.7c1.1,0.7,2.3,1.5,3.4,2.2c7.2,4.4,7.1,12,4.8,17.5c-1.4,3.3-4.1,5.3-7.8,5.6
		c-1.4,0.1-2.9,0.1-4.3-0.1c-2.6-0.3-4.6-1.7-6.1-3.8C117.4,67.8,116.9,65.3,116.5,62.3z"/>
	<path class="st0" d="M330.6,74.3c-1.4,0-2.4,0-3.7,0c-0.1-1-0.1-1.7-0.1-2.5c0-4.2,0-8.3,0-12.5c0-1.6-0.3-3-1-4.4
		c-3.2-7.2-6.3-14.3-9.4-21.5c-0.3-0.8-0.6-1.6-1-2.7c1.2-0.5,2.2-0.9,3.4-1.4c0.4,0.7,0.8,1.3,1,1.9c2.5,6,5.1,11.9,7.6,17.9
		c0.3,0.8,0.7,1.5,1.4,2.9c0.6-1.2,1.1-2,1.4-2.7c2.4-5.6,4.7-11.2,7.1-16.8c0.4-1,0.9-2,1.5-3.2c1.2,0.5,2.2,0.9,3.5,1.4
		c-0.3,0.8-0.6,1.6-0.9,2.3c-3.2,7.4-6.5,14.8-9.8,22.1c-0.6,1.3-0.9,2.7-0.9,4.2c0.1,4.2,0,8.3,0,12.5
		C330.7,72.5,330.7,73.3,330.6,74.3z"/>
	<path class="st1" d="M303.9,60.5h-2.6c0.2-0.6,0.5-1.2,0.7-1.8c0.5-1.4,1.1-2.7,1.5-4c1.8-5,2.1-10.4,0.9-16.4
		c-0.3-1.3-0.7-2.6-2.5-2.4c-0.5-5.4-2.2-9.6-5.2-13c-1.4-1.6-2.3-3.4-3-5.1c-0.8-1.9-1.9-3.6-2.9-5.3l-0.1-0.1
		c-0.3-0.5-1.2-1.3-1.8-1.2c-1.3,0.1-2-0.6-2.7-1.4l-0.2-0.2c-2.6-2.9-5.8-4.9-9.8-6.3c-1-0.3-2.1-0.6-3.1-0.8
		c-1.8-0.4-3.6-0.8-5.3-1.8c-0.3-0.2-0.7-0.3-1-0.2c-1.6,0.5-2.8-0.3-3.5-0.7l0,0l0,0c-0.4,0-0.8,0.1-1.1,0.1
		c-0.8,0.1-1.4,0.1-2,0.2c-0.4,0-0.8,0.1-1.1,0.3c-0.2,0.1-0.4,0.1-0.6,0.2c-1.6,0.5-3.2,1.1-3.9,3c0,0.1-0.2,0.1-0.3,0.2
		C254.1,4,254,4,253.9,4c-0.3,0.2-0.5,0.3-0.8,0.5c-0.6,0.3-1.2,0.7-1.8,1.1c-0.6,0.4-1.1,0.8-1.7,1.3c-0.2,0.2-0.5,0.4-0.7,0.5
		l-1.9-1.6l-0.1,0c-2.2,1.3-3.7,3.1-5.1,4.6c-0.4,0.5-0.9,0.9-1.5,1.3l-0.3,0.2c-0.3,0.2-0.6,0.4-0.9,0.6c-0.6,0.4-1.1,0.7-1.5,1.2
		c-0.9,1.2-1.8,2.6-2.8,4.5c-0.9,1.7-1.7,3.4-2.6,5.1c-0.3,0.7-0.7,1.4-1.1,2.2c-1.3-0.6-2,0.2-2.6,1.1c-2.4,3.3-3.9,7.2-4.7,12.7
		c-0.9,6-0.6,12,0.9,17.9c1.4,5.7,3.1,11.1,7.7,14.9c0.4,0.3,0.8,1,0.9,1.5c0.3,3.7,2.9,5.9,4.8,7.2c4.7,3.2,10,5.1,15.9,5.9l0.3,0
		c2.4,0.3,2.4,0.3,2.7,2.7c0.3,3,0.5,6,0.7,9l0.1,1.7c0.1,0.9,0.1,1.9,1.1,2.6c1.7,1.2,4.2,1.8,6.6,1.8c2.2,0,4.4-0.5,5.9-1.5
		c0.9-0.6,1.8-1.4,1.9-3c0.1-3.8,0.3-7.4,0.5-11.7c0.1-2.5,0.4-2.7,2.8-3c5.3-0.6,9.6-2.3,13.3-5.1c5.5-4.2,9.4-9.8,12.8-15.1
		c1-1.6,1.4-3.1,1.2-4.6L303.9,60.5z M283.9,13c0,0-0.2,0.1-0.4,0.1c0,0,0,0,0,0c-0.3,0-0.6-0.1-0.6-0.2c-2.1-2.1-4.1-4.3-6.1-6.4
		L276.3,6c0,0,0-0.1,0-0.2c0,0,0,0,0,0c2.9,0.4,7.4,3.7,8.1,5.9C284.5,12.1,284.2,12.7,283.9,13z M298.3,30.1c1.3,2,1.9,4.2,1.8,6.7
		C299.2,35.5,298.4,32.6,298.3,30.1z M294.3,73.4c-2.8,2.5-5.7,4.8-8.5,6.9c-1.3,1-2.7,1.4-4.1,1.1c0.1-0.1,0.2-0.1,0.2-0.2
		c0.3-0.2,0.7-0.5,1-0.7c2.6-1.5,4.8-3.7,6.9-6.6c1.2-1.7,2.5-3.2,3.6-4.4c0.9-1,1.9-2.1,2.9-3c0.5-0.5,1.1-1.1,1.6-1.6
		c1-1,1-1,2.9-0.5c-0.2,0.4-0.4,0.8-0.6,1.1c-0.5,0.9-0.9,1.8-1.5,2.6v0C297.6,69.8,296.1,71.8,294.3,73.4z M269.8,92.4
		c-0.2-0.7-0.4-1.3-0.9-1.9l-0.2-0.3l0,0.3c0,1.3,0.1,2.6,0.2,3.9c0.2,2.1,0.4,4.1,0,6.3c-1-0.7-1.1-1.6-1.3-2.5
		c-0.1-0.4-0.1-0.7-0.2-1.1c-0.1-0.4-0.3-0.8-0.4-1.2c-0.3-0.9-0.6-1.8-1-2.7l-0.2-0.3l-1.2,7.5c-0.4,0.1-0.6,0.1-0.8,0
		c-0.3-0.1-0.3-0.5-0.4-0.8l0-0.1c-0.5-2-1.1-4.1-1.6-6.1l-0.3-1.1c-0.1-0.3-0.1-0.6-0.2-0.9c0-0.1-0.1-0.3-0.1-0.4l0-0.1l-0.5,0.1
		l-0.8,7.1l-0.1,0c-0.1-0.2-0.1-0.3-0.2-0.5c-0.2-0.4-0.3-0.8-0.3-1.2c0-0.5,0-0.9,0-1.4c0-2.2,0-4.5,0.3-6.7
		c0.2-1.2,0.4-1.8,0.8-2.1c0.5-0.4,1.4-0.3,2.6-0.1l0.3,0c0.9,0.1,1.8,0.3,2.6,0c1.6-0.6,3.2-0.3,4.9,0c0.4,0.1,0.9,0.2,1.3,0.2
		c0,0.2,0,0.4,0.1,0.5c0.1,0.4,0.1,0.9,0,1c-1.4,1.2-1.2,2.6-1,4c0,0.3,0.1,0.6,0.1,0.9c0,0.4,0,0.9,0,1.4c0,0.2,0,0.5,0,0.7
		C270.3,94.1,270,93.3,269.8,92.4z M239,20.6c0,0.3,0.1,0.7,0.1,1c0.1,1,0.2,2.1,0.4,3.2l0.1,0.5l0.1-0.5c0.3-1.1,0.4-2.2,0.5-3.3
		c0.3-2.5,0.5-4.9,2.6-6.8c3.6,3.7,5,11.5,2.6,14.5l-2.2-0.8l-1.9,3.7l-2.8-2.7l-2.9,4.8c-1.7-2.4-2.4-6.2-1.5-8.4
		c1-2.6,2.1-5.2,3.1-7.7l0,0c0.2-0.4,0.4-0.8,0.7-1.2c0.1-0.2,0.2-0.4,0.4-0.6c0.6,1,0.5,2,0.5,3C239,19.7,239,20.2,239,20.6z
		 M252.3,11c0.1,0.5,0.2,0.9,0.3,1.6l0.3,1.5l2.8-6.4c0.2,0.2,0.5,0.4,0.7,0.5c0.5,0.4,0.9,0.7,1.1,1.1c1.6,2.5,3.1,5,4.6,7.6
		c0.2,0.4,0.3,1.2,0.1,1.7c-0.5,1.1-1,2.2-1.6,3.3c-0.2,0.4-0.4,0.8-0.7,1.3c-0.8-0.2-1.5-0.7-2.2-1.1c-1-0.6-1.9-1.2-3.1-1.2
		c0,0-0.1,0-0.1,0l-0.1,0l-0.6,2.4c-0.7-0.1-1-0.6-1.4-1.1c-0.3-0.5-0.6-1-1.3-1.2l-0.1,0l-1.9,1.7c-2.9-3.6-1.8-9,2.7-13.4l0.1,0.6
		C252.2,10.2,252.2,10.6,252.3,11z M289.2,15.5c3.4,2.7,6.4,10.7,5.5,14.8l-1.8-0.8l-2.3,4.1c-0.1-0.1-0.2-0.2-0.4-0.3
		c-0.3-0.2-0.5-0.5-0.7-0.7c-2.2-3.1-4.2-5.9-5.9-8.4c-0.4-0.6-0.7-1.1-0.7-1.6c0.2-2.9,1.3-5.5,3.4-8.1l2.4,5.5l0.1-1.3
		c0.1-0.6,0.1-1,0.1-1.5c0-0.4,0.1-0.8,0.1-1.3L289.2,15.5z M250.9,78.3c-1.9-0.4-1.9-0.4-2.1-2.2c-0.3-3.6-1.3-7-2.9-10.1l-0.2-0.3
		c-0.3-0.6-0.6-1.2-1.1-1.8c-1.3-1.4-1.6-3.1-1-5.3c0.5-1.9,1.2-3.7,1.9-5.4c0.1-0.3,0.4-0.6,0.7-1c0.1-0.2,0.3-0.3,0.4-0.5
		c1.1,1.5,1.3,3.1,1.6,4.9c0.2,1.4,0.4,2.9,1.1,4.2l0.2,0.4l0.7-9.6c3.2,0,7.7,3,10.2,6.7c1.4,2.2,1.6,2.8,0.9,4.3l-0.1-0.1
		c-0.2-0.2-0.4-0.5-0.6-0.7c-0.2-0.2-0.3-0.4-0.6-0.6l-0.4-0.4l-0.1,0.1c-2.9,2.1-5.2,4.6-6.9,7.7C251.2,71.6,250.6,74.8,250.9,78.3
		z M267.2,37.7c0.2,1.2,0.3,2.5,0.9,3.7l0.1,0.3l0.1-0.3c0.8-1.8,0.9-3.6,1-5.3c0.1-1,0.2-2.1,0.4-3.1c0.1,0.1,0.3,0.1,0.4,0.2
		c0.3,0.2,0.6,0.3,0.8,0.5c3.6,4.3,6.5,9.3,9,15.4c0.4,1.1,0.2,1.8-0.7,2.3c-3.9,2-7,5.1-10,8l-0.7,0.7c-0.4,0.4-0.8,0.7-1.3,1.1
		c0,0-0.1,0-0.3,0.1c-0.1,0-0.2,0-0.4,0.1c-2.8-4.9-6.5-8.7-10.9-11.2c0.7-4.3,7.1-14.7,10.3-16.6C266.8,34.7,267,36.1,267.2,37.7z
		 M289,40.7c-0.9,1.4-1.7,2.8-2.5,4.2c-0.4,0.8-0.9,1.6-1.4,2.4c-0.3,0.4-0.5,0.8-0.9,1.3c-0.2,0.2-0.3,0.5-0.5,0.7
		c-0.2-0.2-0.3-0.4-0.5-0.6c-0.3-0.4-0.5-0.7-0.7-0.9c-0.9-1.4-1.7-2.8-2.6-4.2c-1.9-3-3.8-6.2-5.7-9.2c-1.1-1.7-1.2-3.2-0.3-5
		c0.7-1.4,1.5-2.8,3.1-4l3.1,5.8l1-5.6c0.2,0.1,0.4,0.2,0.5,0.3c0.3,0.2,0.6,0.4,0.8,0.6c3.2,3.6,5.5,7.1,7,10.7
		C289.8,38.5,289.7,39.5,289,40.7z M270.1,19.8l0.1-0.2c0.3-0.9,0.3-1.8,0.3-2.7c0-1.2,0-2.4,0.7-3.4c2.7,0.8,6.4,5.6,7,8.9
		c-1.7-0.7-2.6,0.3-3.4,1.5c-0.9,1.4-1.8,2.9-2.7,4.4l-1.1,1.9l-2.5-2l-0.9,1.3l-3-0.8c-2.6-4.7-1.9-9.5,2-13.5L270.1,19.8z
		 M248.4,27.6c0.7-1.3,1.3-2.6,2.7-3.8c1,1.5,1.7,3.2,2.4,4.8c0.6,1.4,1.2,2.8,2,4.2l0.3,0.5l-0.1-0.6c-0.1-0.5-0.1-1-0.2-1.6
		c-0.2-1.2-0.3-2.4-0.6-3.6c-0.3-1.4-0.1-2.6,0.7-3.8c3.7,1.9,6,4.9,7,8.9c0.1,0.3-0.1,0.9-0.3,1.2c-2,2.6-4.1,5.1-6.1,7.6l-0.5,0.6
		c0,0-0.1,0.1-0.2,0.1c-0.1,0-0.1,0-0.2,0.1c-0.1,0-0.1-0.1-0.2-0.1c-0.2-0.1-0.4-0.3-0.5-0.5c-0.9-1.3-1.8-2.7-2.8-4
		c-1.2-1.8-2.5-3.6-3.8-5.5c-0.8-1.1-0.9-2.2-0.2-3.4C248,28.3,248.2,28,248.4,27.6z M292.8,66c-0.2-0.6,0.1-1.1,0.4-1.5
		c0.1-0.1,0.2-0.3,0.3-0.4c0.5-0.7,0.9-1.5,1.4-2.2c0.7-1.1,1.4-2.1,2-3.2c2.2-3.8,3.5-7.5,4-11.5c0.3-2.5,0.4-2.6,2.2-4.7l0.2-0.2
		c1.5,2.6-0.2,9.1-2.5,14C298.2,61.8,295.1,65.6,292.8,66z M296.8,54.2c-0.5,1.6-1.4,3.1-2.1,4.5c-0.2,0.4-0.6,0.8-1,1.2
		c-0.2,0.2-0.3,0.3-0.5,0.5c-0.2-0.1-0.3-0.3-0.5-0.4c-0.3-0.2-0.5-0.4-0.7-0.6c-1.4-2.4-3-5-4.8-8.2c-0.4-0.8-0.5-1.5-0.1-2.4
		c1.4-3.1,2.8-6.3,4.2-9.4c0.8-1.7,1.5-3.4,2.3-5.1c0.1-0.1,0.2-0.2,0.3-0.4c0.1-0.1,0.1-0.1,0.2-0.2l2,1l0.1,0l1.2-0.7
		c0,0.1,0.1,0.1,0.1,0.1c0.1,0.1,0.2,0.2,0.2,0.3c0,0.2,0.1,0.3,0.1,0.5c0.2,0.7,0.3,1.4,0.4,2.1l0,0.5
		C298.4,43.1,298.6,48.8,296.8,54.2z M281.4,17.6c-0.3,0.4-0.5,0.8-0.7,1.3c-0.1,0.2-0.2,0.4-0.3,0.7c-0.4-0.5-0.9-1-1.3-1.5
		c-1-1.2-1.9-2.3-3-3.3c-1-1.1-2.1-2-3.3-3c-0.5-0.4-1-0.9-1.5-1.4l-0.1-0.1l-2.4,1.9l-1.8-1.6l-1.9,1.6c-0.3-1.6,0.4-3.6,2.2-5.9
		l2.6,0.8l0.9-2.3c0.1,0,0.3,0.1,0.4,0.1c0.4,0.1,0.7,0.2,1,0.4c3.4,2,6.2,4.4,8.6,7.1C282.4,14.5,282.6,16,281.4,17.6z M239.3,33.5
		c0,0,0.1,0,0.2,0c0.7,0.8,1,1.9,1.3,3c0.3,1,0.5,2,1.1,2.9l0.2,0.3l1.6-8c0.3,0.2,0.6,0.4,0.8,0.5c0.5,0.3,0.9,0.6,1.3,0.9
		c2.8,2.6,5.2,5.9,7.6,10.7c0.7,1.3,0.1,2.4-0.5,3.6c-0.1,0.3-0.3,0.5-0.4,0.8l-2.7-1.4l-1.3,2.1l-2.1-1.5l-0.1,0.1
		c-2.6,2-3.3,4.9-4.1,7.9c-0.2,0.7-0.4,1.5-0.6,2.3c-0.2-0.1-0.3-0.2-0.5-0.3c-0.3-0.2-0.6-0.3-0.8-0.5c-2.3-2.1-4.3-3.4-6.4-4.2
		c-0.8-0.3-1.1-0.8-1-1.5c0.6-5.3,1.9-12,6.6-17.6C239.3,33.6,239.3,33.5,239.3,33.5z M228.8,58c0-0.1,0.1-0.3,0.1-0.5
		c1.3,0.8,1.6,2,1.9,3.2c0.3,1,0.5,2,1.4,2.7l0.2,0.2l0-0.2c0.2-1,0.1-2.1,0.1-3.1c-0.1-1.5-0.1-2.9,0.4-4.2c3,1.1,6.7,4.3,9.5,8.4
		c3.1,4.4,4.4,8.6,3.6,11.5c-0.1,0-0.3-0.1-0.4-0.1c-0.4-0.1-0.8-0.2-1.1-0.4c-1.3-0.8-2.5-1.6-3.8-2.4c-0.7-0.4-1.4-0.9-2.1-1.3
		l-0.2-0.1c-0.4-0.2-0.8-0.5-1.2-0.5c-0.3,0-0.6,0.1-0.9,0.4h0c-0.2,0.2-1,0.1-1.3-0.2l-0.3-0.2c-1-0.8-2.1-1.6-2.8-2.6
		c-2-2.7-3.1-5.8-3.3-9.7C228.7,58.4,228.7,58.2,228.8,58z M240.4,77.7l-0.7-2.7c0.2,0,0.4,0.1,0.5,0.1c0.4,0.1,0.7,0.2,1,0.3
		c0.7,0.4,1.4,0.8,2.1,1.3c0.8,0.5,1.6,1,2.4,1.4c2.2,1.2,4.5,2.5,7,3.7c1.9,0.9,2.6,1.4,3.4,2.7c-4.2,1.8-14-2.5-17.4-7.6
		L240.4,77.7z M253.5,73.4c0.6-2.2,1.7-4.4,2.6-6.5l0-0.1c0.4-0.8,1-1.9,2.4-2.4c1.1,1.4,1.5,3,1.9,4.6c0.4,1.7,0.9,3.4,2.1,4.9
		l0.2,0.3v-0.3c0-0.5,0-1.1,0-1.6c0-1.2,0-2.5,0-3.8c0.1-1.4,0.3-2.7,0.7-3.7c0.3-0.7,0.6-1.1,0.9-1.2c0.4-0.1,0.8,0,1.5,0.5
		c2.1,1.3,3.7,3,5.3,5.6c-0.9,0.6-1.7,1.2-2.6,1.7c-3.6,2.4-7.1,4.7-9.8,8c-0.5,0.6-0.9,1.2-1.3,1.8c-1-0.4-1.8-0.8-2.5-1.2
		c-0.3-0.2-0.6-0.5-0.9-0.8c-0.3-0.3-0.5-0.6-0.6-0.9C252.9,77,252.9,75.5,253.5,73.4z M269.4,82.7c-0.6,0-1.1,0.1-1.7,0.2
		c-0.3,0.1-0.6,0.1-0.9,0.2c-1.7,0.3-3.4,0.1-4.9,0c-0.5,0-0.9-0.3-1.3-0.6c-0.2-0.1-0.4-0.2-0.5-0.3c0.2-1.5,0.9-2.7,2.2-3.7
		l0.3-0.2c3.9-3,7.9-6,12.4-8.1c0.3-0.1,0.6-0.2,1.1-0.3c0.2,0,0.4-0.1,0.7-0.2c-0.1,0.3-0.1,0.6-0.2,0.9c-0.1,0.6-0.2,1.1-0.4,1.6
		c-0.4,0.9-0.8,1.8-1.2,2.6c-0.8,1.7-1.5,3.5-2.2,5.3l-0.2,0.5l0.4-0.4c1.3-1.2,2.2-2.7,3.1-4.4c1-1.8,2.1-3.8,4-5.2
		c0,0.2,0.1,0.4,0.1,0.6c0.1,0.4,0.1,0.6,0.1,0.8c-0.8,3.3-2.1,6.2-3.9,8.6c-0.6,0.8-1.6,1.6-2.7,2.2c-0.7,0.4-1.8,0.6-2.4,0.3
		C270.5,82.8,269.9,82.7,269.4,82.7z M281,74.8c1-2.2,1.9-4.2,1.3-6.8l0-0.1l-0.1,0c-0.3,0-0.5,0.1-0.8,0.1
		c-0.5,0.1-1.1,0.2-1.5,0.1c-0.4-0.1-0.9-0.4-1.4-0.7c-0.2-0.2-0.5-0.3-0.8-0.5l-0.1,0l-3.5,1.5l-4.1-5.1c1.7-3.6,7.9-8.5,11.8-9.3
		l1.7,5.1l2-5.7c0.1,0,0.2,0,0.3,0c0,0,0.1,0,0.1,0c2.9,4.3,4.2,8.3,4.2,12.4c0,1.2-0.4,2.7-1.1,4.1c-1.5,3.1-3.9,5.7-7,7.6
		c-0.4,0.2-0.9,0.4-1.4,0.6c-0.3,0.1-0.6,0.2-0.9,0.3C280,77.1,280.5,75.9,281,74.8z M260.1,7.7c0-1.4,1.1-3,3.3-5.1l2.5,1.9
		l-3.6,7.5C260.7,10.3,260,9,260.1,7.7z M256.9,3.7h2.8l-1,3c-1.3-0.2-2.1-0.4-2.3-0.8C256.1,5.4,256.4,4.7,256.9,3.7z M246.5,14.1
		c-1.5-0.7-1.5-0.8-2.5-2.6l1.6-2l3.1,0.2C248.6,11.6,247.6,12.8,246.5,14.1z M229.7,51.3l-0.1,1.3l-2.6,1.1
		c-2.3-4.4-2-15.1,0.5-20.6c0.3-0.7,0.7-1.3,1.1-1.7l1,3.9l0.2-0.2c0.4-0.5,0.6-1.1,0.9-1.6c0.3-0.8,0.7-1.6,1.5-2
		c1,2.1,1.7,4,0.5,6.3C230.6,41.9,230.1,46.3,229.7,51.3z M267,3.6c1.2,0.3,1.2,0.3,1.6,1.3C267.5,4.9,267.1,4.3,267,3.6z"/>
</g>
</svg>
